# AST/ASF file generated using VICON BodyLanguage
# -----------------------------------------------
:version 1.10
:name VICON
:units
  mass 1.0
  length 0.45
  angle deg
:documentation
   .ast/.asf automatically generated from VICON data using
   VICON BodyBuilder and BodyLanguage model FoxedUp or BRILLIANT.MOD
:root
   order TX TY TZ RX RY RZ
   axis XYZ
   position 0 0 0  
   orientation 0 0 0 
:bonedata
  begin
     id 1 
     name lhipjoint
     direction 0.702568 -0.596508 0.388042 
     length 2.56661 
     axis 0 0 0  XYZ
  end
  begin
     id 2 
     name lfemur
     direction 0.34202 -0.939693 0  
     length 6.58374  
     axis 0 0 20  XYZ
    dof rx ry rz
    limits (-160.0 20.0)
           (-70.0 70.0)
           (-60.0 70.0)
  end
  begin
     id 3 
     name ltibia
     direction 0.34202 -0.939693 0   
     length 6.62538   
     axis 0 0 20   XYZ
    dof rx
    limits (-10.0 170.0)
  end
  begin
     id 4 
     name lfoot
     direction 0.10455 -0.287249 0.952133   
     length 2.26699   
     axis -90 7.62852e-016 20   XYZ
    dof rx rz
    limits (-45.0 90.0)
           (-70.0 20.0)
  end
  begin
     id 5 
     name ltoes
     direction 1.53572e-011 -4.22322e-011 1   
     length 1.12949   
     axis -90 7.62852e-016 20   XYZ
    dof rx
    limits (-90.0 20.0)
  end
  begin
     id 6 
     name rhipjoint
     direction -0.728055 -0.574632 0.373811   
     length 2.66432  
     axis 0 0 0  XYZ 
  end
  begin
     id 7 
     name rfemur
     direction -0.34202 -0.939693 0   
     length 6.66732   
     axis 0 0 -20   XYZ
    dof rx ry rz
    limits (-160.0 20.0)
           (-70.0 70.0)
           (-70.0 60.0)
  end
  begin
     id 8 
     name rtibia
     direction -0.34202 -0.939693 0   
     length 6.59288   
     axis 0 0 -20   XYZ
    dof rx
    limits (-10.0 170.0)
 end
 begin
     id 9 
     name rfoot
     direction -0.119193 -0.327479 0.93731   
     length 2.38061  
     axis -90 -7.62852e-016 -20   XYZ
    dof rx rz
    limits (-45.0 90.0)
           (-20.0 70.0)
  end
  begin
     id 10 
     name rtoes
     direction -1.53547e-011 -4.21827e-011 1   
     length 1.17899   
     axis -90 -7.62852e-016 -20   XYZ
    dof rx
    limits (-90.0 20.0)
  end
  begin
     id 11 
     name lowerback
     direction -0.000416114 0.999912 -0.0132284   
     length 2.12109   
     axis 0 0 0   XYZ
    dof rx ry rz
    limits (-20.0 45.0)
           (-30.0 30.0)
           (-30.0 30.0)
  end
  begin
     id 12 
     name upperback
     direction -0.00136371 0.99809 0.0617608   
     length 2.10067   
     axis 0 0 0   XYZ
    dof rx ry rz
    limits (-20.0 45.0)
           (-30.0 30.0)
           (-30.0 30.0)
  end
  begin
     id 13 
     name thorax
     direction -3.43026e-005 0.997776 0.0666515   
     length 2.10618   
     axis 0 0 0   XYZ
    dof rx ry rz
    limits (-20.0 45.0)
           (-30.0 30.0)
           (-30.0 30.0)
  end
  begin
     id 14 
     name lowerneck
     direction 0.0398646 0.998418 0.0396592   
     length 1.83817   
     axis 0 0 0   XYZ
    dof rx ry rz
    limits (-20.0 45.0)
           (-30.0 30.0)
           (-30.0 30.0)
  end
  begin
     id 15 
     name upperneck
     direction -0.0367268 0.961527 -0.272244   
     length 1.81975   
     axis 0 0 0   XYZ
    dof rx ry rz
    limits (-20.0 45.0)
           (-30.0 30.0)
           (-30.0 30.0)
  end
  begin
     id 16
     name head
     direction -0.0182665 0.99536 -0.0944669  
     length 1.86026  
     axis 0 0 0   XYZ
    dof rx ry rz
    limits (-20.0 45.0)
           (-30.0 30.0)
           (-30.0 30.0)
  end
  begin
     id 17 
     name lclavicle
     direction 0.924239 0.361045 0.124212  
     length 3.26878  
     axis 0 0 0   XYZ
    dof ry rz
    limits (-20.0 10.0)
           (0.0 20.0)
  end
  begin
     id 18 
     name lhumerus
     direction 1 -4.48968e-011 -2.56583e-027   
     length 4.58538   
     axis 180 -30 -90   XYZ
    dof rx ry rz
    limits (-60.0 90.0)
           (-90.0 90.0)
           (-90.0 90.0)
  end
  begin
     id 19
     name lradius
     direction 1 -4.4898e-011 -5.50375e-027   
     length 2.68935   
     axis 180 -30 -90   XYZ
    dof rx
    limits (-10.0 170.0)
  end
  begin
     id 20
     name lwrist
     direction 1 -4.48939e-011 -1.48955e-026   
     length 1.34468   
     axis 9.0955e-015 90 90   XYZ
    dof ry
    limits (-180.0 0.0)
 end
  begin
     id 21 
     name lhand
     direction 1 -4.48936e-011 -2.97907e-026   
     length 0.585058   
     axis 1.90115e-014 90 90   XYZ
    dof rx rz
    limits (-90.0 90.0)
           (-45.0 45.0)
  end
  begin
     id 22 
     name lfingers
     direction 1 -4.49082e-011 -5.96235e-026   
     length 0.471689   
     axis 3.80223e-014 90 90   XYZ
    dof rx
    limits (0.0 90.0)
  end
  begin
     id 23
     name lthumb
     direction 0.707107 -6.3489e-011 0.707107   
     length 0.677253   
     axis -90 45 -3.84942e-014   XYZ
    dof rx rz
    limits (-45.0 45.0)
           (-45.0 45.0)
  end
  begin
     id 24 
     name rclavicle
     direction -0.923098 0.371783 0.0983239   
     length 3.19656  
     axis 0 0 0   XYZ 
    dof ry rz
    limits (-10.0 20.0)
           (-20.0 0.0)
  end
  begin
     id 25 
     name rhumerus
     direction -1 -4.48976e-011 -2.5492e-027  
     length 4.4745   
     axis 180 30 90   XYZ
    dof rx ry rz
    limits (-90.0 60.0)
           (-90.0 90.0)
           (-90.0 90.0)
  end
  begin
     id 26 
     name rradius
     direction -1 -4.48941e-011 -4.36555e-027   
     length 2.93896   
     axis 180 30 90   XYZ
    dof rx
    limits (-10.0 170.0)
  end
  begin
     id 27 
     name rwrist
     direction -1 -4.49044e-011 -1.49032e-026   
     length 1.46948   
     axis 9.0955e-015 -90 -90   XYZ
    dof ry
    limits (-180.0 0.0)
  end
  begin
     id 28
     name rhand
     direction -1 -4.48826e-011 -2.97749e-026   
     length 0.405092   
     axis 1.90115e-014 -90 -90   XYZ
    dof rx rz
    limits (-90.0 90.0)
           (-45.0 45.0)
  end
  begin
     id 29
     name rfingers
     direction -1 -4.49209e-011 -5.96602e-026   
     length 0.326596   
     axis 3.80223e-014 -90 -90   XYZ
    dof rx
    limits (0.0 90.0)
  end
  begin
     id 30
     name rthumb
     direction -0.707107 -6.34776e-011 0.707107   
     length 0.468928   
     axis -90 -45 3.84942e-014   XYZ
    dof rx rz
    limits (-45.0 45.0)
           (-45.0 45.0)
  end
:hierarchy
  begin
    root lhipjoint rhipjoint lowerback
    lhipjoint lfemur
    lfemur ltibia
    ltibia lfoot
    lfoot ltoes
    rhipjoint rfemur
    rfemur rtibia
    rtibia rfoot
    rfoot rtoes
    lowerback upperback
    upperback thorax
    thorax lowerneck lclavicle rclavicle
    lowerneck upperneck
    upperneck head
    lclavicle lhumerus
    lhumerus lradius
    lradius lwrist
    lwrist lhand lthumb
    lhand lfingers
    rclavicle rhumerus
    rhumerus rradius
    rradius rwrist
    rwrist rhand rthumb
    rhand rfingers
  end

#!OML:ASF H:\Punching\Project 1\Capture day 1\Session 1\female.ASF
:FULLY-SPECIFIED
:DEGREES
228
root 1.2328 15.2259 3.84656 -17.2519 18.3627 0.447436
lowerback 0.417133 -0.105335 -1.84523
upperback 1.85388 -0.15883 2.45672
thorax 1.68112 -0.126083 3.56057
lowerneck 2.24345 8.75216 23.1773
upperneck 37.3822 14.8346 -9.21224
head 15.4684 9.12638 -5.81805
rclavicle 7.95139e-016 7.95139e-016
rhumerus -19.3287 20.5676 -80.0722
rradius 131.689
rwrist -15.1952
rhand -28.2507 12.2652
rfingers 7.12502
rthumb -1.62803 -17.7083
lclavicle 7.95139e-016 7.95139e-016
lhumerus -10.1046 -32.0611 73.916
lradius 136.778
lwrist -8.61315
lhand -34.4497 -0.56444
lfingers 7.12502
lthumb -7.61363 29.2785
rfemur -78.4904 6.01758 -10.3329
rtibia 37.1975
rfoot 14.6323 -24.3524
rtoes -19.2115
lfemur 11.5073 -9.27728 -33.5436
ltibia 23.4144
lfoot -12.1861 9.06057
ltoes 13.0907
229
root 1.23741 15.2262 3.86268 -17.2451 18.6267 0.531378
lowerback 0.393334 -0.132358 -2.02953
upperback 1.81765 -0.193024 2.41781
thorax 1.6606 -0.145003 3.62407
lowerneck 2.27288 8.7167 23.2446
upperneck 37.4214 14.7712 -9.16054
head 15.4711 9.1175 -5.81852
rclavicle 6.16232e-015 4.21423e-014
rhumerus -19.3882 20.4197 -79.9989
rradius 131.721
rwrist -15.425
rhand -28.2527 12.1689
rfingers 7.12502
rthumb -1.62994 -17.8046
lclavicle 6.16232e-015 4.21423e-014
lhumerus -9.98196 -32.4113 73.9617
lradius 136.726
lwrist -8.79921
lhand -34.397 -0.672739
lfingers 7.12502
lthumb -7.56273 29.1721
rfemur -78.4961 5.48944 -10.6752
rtibia 36.5265
rfoot 13.4805 -25.3136
rtoes -18.2529
lfemur 11.6209 -9.23023 -33.6275
ltibia 23.3171
lfoot -12.1496 8.78699
ltoes 13.1379
230
root 1.24264 15.223 3.87641 -17.2107 18.8568 0.679746
lowerback 0.399646 -0.14497 -2.24465
upperback 1.78999 -0.208081 2.36943
thorax 1.63075 -0.154604 3.69546
lowerneck 2.29188 8.69119 23.3041
upperneck 37.4338 14.7386 -9.16403
head 15.4737 9.11409 -5.83622
rclavicle -2.8625e-014 -4.13472e-014
rhumerus -19.354 20.3156 -79.8693
rradius 131.762
rwrist -15.6796
rhand -28.2834 12.0139
rfingers 7.12502
rthumb -1.65965 -17.9594
lclavicle -2.8625e-014 -4.13472e-014
lhumerus -9.80027 -32.6655 73.9648
lradius 136.728
lwrist -8.85587
lhand -34.1372 -0.617701
lfingers 7.12502
lthumb -7.31204 29.236
rfemur -78.7462 5.08649 -10.9768
rtibia 36.3969
rfoot 13.6553 -25.9274
rtoes -18.9453
lfemur 11.6682 -9.15107 -33.7644
ltibia 23.3043
lfoot -12.14 8.51302
ltoes 13.166
231
root 1.24742 15.2166 3.8862 -17.1606 19.0172 0.862951
lowerback 0.436478 -0.131126 -2.44625
upperback 1.77249 -0.188396 2.31581
thorax 1.59128 -0.146427 3.75422
lowerneck 2.30529 8.67195 23.3597
upperneck 37.422 14.7283 -9.21216
head 15.4737 9.11427 -5.8688
rclavicle -3.53837e-014 -1.11319e-014
rhumerus -19.2372 20.2379 -79.6957
rradius 131.812
rwrist -15.9449
rhand -28.3355 11.8635
rfingers 7.12502
rthumb -1.70992 -18.1094
lclavicle -3.53837e-014 -1.11319e-014
lhumerus -9.57069 -32.8321 73.9331
lradius 136.78
lwrist -8.78979
lhand -33.7204 -0.545259
lfingers 7.12502
lthumb -6.90967 29.322
rfemur -78.9659 4.84195 -11.2327
rtibia 36.6263
rfoot 14.1509 -26.3845
rtoes -19.3784
lfemur 11.6479 -9.04475 -33.9251
ltibia 23.3795
lfoot -12.1632 8.28323
ltoes 13.1735
232
root 1.2514 15.207 3.89235 -17.1219 19.0826 1.04712
lowerback 0.513388 -0.0932359 -2.61142
upperback 1.7808 -0.13786 2.27627
thorax 1.55303 -0.122651 3.80728
lowerneck 2.30403 8.66723 23.4049
upperneck 37.3822 14.7528 -9.31281
head 15.4742 9.1211 -5.91605
rclavicle -4.17448e-015 4.77083e-015
rhumerus -19.0164 20.2028 -79.4717
rradius 131.857
rwrist -16.1866
rhand -28.4154 11.7083
rfingers 7.12502
rthumb -1.78711 -18.264
lclavicle -4.17448e-015 4.77083e-015
lhumerus -9.31603 -32.8946 73.8819
lradius 136.881
lwrist -8.62722
lhand -33.2002 -0.484314
lfingers 7.12502
lthumb -6.40753 29.3988
rfemur -79.1243 4.75978 -11.4208
rtibia 37.0728
rfoot 14.9042 -26.5377
rtoes -19.6421
lfemur 11.5853 -8.91597 -34.0845
ltibia 23.5417
lfoot -12.2345 8.14229
ltoes 13.1801
233
root 1.25454 15.1937 3.89626 -17.1356 19.0375 1.19523
lowerback 0.656379 -0.0324651 -2.70895
upperback 1.83167 -0.0587813 2.2629
thorax 1.51861 -0.0844066 3.84936
lowerneck 2.26742 8.68354 23.421
upperneck 37.318 14.8101 -9.44452
head 15.477 9.13201 -5.96476
rclavicle -7.95139e-015 3.89618e-014
rhumerus -18.6892 20.2084 -79.2037
rradius 131.895
rwrist -16.3833
rhand -28.5046 11.5305
rfingers 7.12502
rthumb -1.87326 -18.441
lclavicle -7.95139e-015 3.89618e-014
lhumerus -9.05343 -32.868 73.8204
lradius 137.01
lwrist -8.44228
lhand -32.7053 -0.453128
lfingers 7.12502
lthumb -5.92968 29.4439
rfemur -79.2773 4.82371 -11.5163
rtibia 37.6297
rfoot 16.0779 -26.2332
rtoes -20.2883
lfemur 11.5279 -8.76807 -34.2172
ltibia 23.7825
lfoot -12.3699 8.12602
ltoes 13.2055
234
root 1.25668 15.1787 3.8968 -17.2133 18.8823 1.27972
lowerback 0.876299 0.0523379 -2.70015
upperback 1.90826 0.0504248 2.26961
thorax 1.46443 -0.0296277 3.85186
lowerneck 2.22267 8.70711 23.4319
upperneck 37.2365 14.8797 -9.59339
head 15.4768 9.14446 -6.01739
rclavicle -4.19436e-014 -1.19271e-014
rhumerus -18.3132 20.2365 -78.9275
rradius 131.925
rwrist -16.512
rhand -28.6033 11.376
rfingers 7.12502
rthumb -1.9686 -18.5947
lclavicle -4.19436e-014 -1.19271e-014
lhumerus -8.83715 -32.8077 73.7654
lradius 137.161
lwrist -8.25185
lhand -32.3094 -0.416774
lfingers 7.12502
lthumb -5.54749 29.4906
rfemur -79.323 5.04237 -11.5064
rtibia 38.2308
rfoot 16.9632 -25.8265
rtoes -20.3546
lfemur 11.4886 -8.61036 -34.2995
ltibia 24.0805
lfoot -12.564 8.24459
ltoes 13.2593
235
root 1.25814 15.1634 3.89346 -17.3423 18.6359 1.28981
lowerback 1.16614 0.14933 -2.58073
upperback 2.0013 0.174814 2.29789
thorax 1.38665 0.0344605 3.81336
lowerneck 2.1598 8.74325 23.4375
upperneck 37.1548 14.9637 -9.74387
head 15.4838 9.161 -6.06638
rclavicle -1.61016e-014 -3.65764e-014
rhumerus -17.9026 20.2852 -78.6549
rradius 131.935
rwrist -16.5802
rhand -28.6973 11.2412
rfingers 7.12502
rthumb -2.05934 -18.7286
lclavicle -1.61016e-014 -3.65764e-014
lhumerus -8.68246 -32.7405 73.7244
lradius 137.293
lwrist -8.13146
lhand -32.1579 -0.390165
lfingers 7.12502
lthumb -5.40117 29.521
rfemur -79.0524 3.8496 -8.74576
rtibia 38.838
rfoot 17.3782 -22.4377
rtoes -20.148
lfemur 11.4621 -8.45935 -34.322
ltibia 24.4086
lfoot -12.7994 8.48483
ltoes 13.3471
236
root 1.25914 15.1497 3.88577 -17.5074 18.3289 1.21453
lowerback 1.51541 0.244743 -2.35581
upperback 2.09988 0.297405 2.35035
thorax 1.28203 0.0994256 3.73909
lowerneck 2.08022 8.78995 23.4353
upperneck 37.0791 15.0552 -9.88273
head 15.4978 9.17985 -6.10675
rclavicle 7.95139e-015 1.59028e-015
rhumerus -17.4807 20.3596 -78.3955
rradius 131.927
rwrist -16.5862
rhand -28.7836 11.0969
rfingers 7.12502
rthumb -2.14267 -18.8721
lclavicle 7.95139e-015 1.59028e-015
lhumerus -8.6034 -32.6838 73.7113
lradius 137.391
lwrist -8.09529
lhand -32.2694 -0.334911
lfingers 7.12502
lthumb -5.50886 29.5735
rfemur -78.7656 3.11266 -6.62039
rtibia 39.4517
rfoot 17.5577 -19.8725
rtoes -19.6582
lfemur 11.4395 -8.3384 -34.2734
ltibia 24.744
lfoot -13.0566 8.81639
ltoes 13.4714
237
root 1.25989 15.1387 3.87414 -17.6679 18.001 1.07965
lowerback 1.88589 0.331077 -2.05736
upperback 2.18217 0.410117 2.4113
thorax 1.15068 0.16101 3.63088
lowerneck 2.00562 8.83874 23.4486
upperneck 37.0155 15.1443 -10.0051
head 15.5172 9.20186 -6.1429
rclavicle 2.127e-014 -5.56597e-015
rhumerus -17.0786 20.4405 -78.1627
rradius 131.899
rwrist -16.5717
rhand -28.8397 10.9863
rfingers 7.12502
rthumb -2.19693 -18.9822
lclavicle 2.127e-014 -5.56597e-015
lhumerus -8.59676 -32.6663 73.7293
lradius 137.434
lwrist -8.1358
lhand -32.6342 -0.27674
lfingers 7.12502
lthumb -5.8611 29.6222
rfemur -78.4636 2.6217 -4.86158
rtibia 40.0988
rfoot 17.6982 -17.744
rtoes -19.1789
lfemur 11.3891 -8.25766 -34.1715
ltibia 25.0733
lfoot -13.3114 9.18882
ltoes 13.6124
238
root 1.25994 15.1312 3.85858 -17.7737 17.6857 0.901012
lowerback 2.24127 0.391019 -1.73798
upperback 2.23484 0.490572 2.48799
thorax 1.00084 0.207005 3.52659
lowerneck 1.93834 8.89562 23.4627
upperneck 36.966 15.2407 -10.107
head 15.5427 9.22969 -6.16907
rclavicle 7.53394e-014 1.59028e-015
rhumerus -16.6968 20.5586 -77.9515
rradius 131.86
rwrist -16.538
rhand -28.8674 10.8726
rfingers 7.12502
rthumb -2.22364 -19.0955
lclavicle 7.53394e-014 1.59028e-015
lhumerus -8.66298 -32.6584 73.7897
lradius 137.433
lwrist -8.23582
lhand -33.1564 -0.153408
lfingers 7.12502
lthumb -6.36523 29.731
rfemur -78.1908 2.18863 -3.23334
rtibia 40.8319
rfoot 17.814 -15.8487
rtoes -18.8723
lfemur 11.258 -8.23151 -34.0202
ltibia 25.3952
lfoot -13.5416 9.55531
ltoes 13.7545
239
root 1.25874 15.1267 3.84071 -17.7893 17.4128 0.730782
lowerback 2.54866 0.42448 -1.4642
upperback 2.24694 0.538032 2.56323
thorax 0.839022 0.236108 3.44668
lowerneck 1.90289 8.95355 23.4935
upperneck 36.9235 15.3401 -10.1939
head 15.5666 9.26409 -6.1921
rclavicle -3.89618e-014 -5.56597e-015
rhumerus -16.3577 20.7083 -77.7741
rradius 131.814
rwrist -16.4955
rhand -28.8664 10.8098
rfingers 7.12502
rthumb -2.22268 -19.1584
lclavicle -3.89618e-014 -5.56597e-015
lhumerus -8.79195 -32.6601 73.8859
lradius 137.407
lwrist -8.35457
lhand -33.7285 0.00698918
lfingers 7.12502
lthumb -6.91749 29.874
rfemur -78.0002 1.70276 -1.6433
rtibia 41.7233
rfoot 17.9069 -14.1204
rtoes -18.7625
lfemur 11.0214 -8.25048 -33.8606
ltibia 25.7119
lfoot -13.7341 9.87329
ltoes 13.8814
240
root 1.25555 15.1246 3.82178 -17.6817 17.1911 0.612181
lowerback 2.77073 0.443779 -1.27734
upperback 2.21322 0.567413 2.61749
thorax 0.679033 0.255237 3.39467
lowerneck 1.90905 9.00358 23.5501
upperneck 36.8776 15.4273 -10.2605
head 15.5781 9.30009 -6.21384
rclavicle 6.34123e-014 -2.38542e-014
rhumerus -16.0813 20.8471 -77.644
rradius 131.764
rwrist -16.481
rhand -28.7943 10.8439
rfingers 7.12502
rthumb -2.1531 -19.125
lclavicle 6.34123e-014 -2.38542e-014
lhumerus -8.95041 -32.6775 73.9961
lradius 137.379
lwrist -8.44056
lhand -34.234 0.161803
lfingers 7.12502
lthumb -7.40543 30.0122
rfemur -77.9583 1.09253 -0.0233376
rtibia 42.8468
rfoot 17.973 -12.5031
rtoes -18.8455
lfemur 10.6518 -8.29105 -33.7199
ltibia 26.0257
lfoot -13.8829 10.1137
ltoes 13.9855
241
root 1.24997 15.1236 3.80331 -17.4519 17.0181 0.586446
lowerback 2.90021 0.444585 -1.24217
upperback 2.16084 0.569914 2.65568
thorax 0.552577 0.258743 3.41292
lowerneck 1.93291 9.06421 23.6142
upperneck 36.8157 15.5315 -10.3277
head 15.583 9.34408 -6.23403
rclavicle 2.70347e-014 -2.62396e-014
rhumerus -15.8139 21.0208 -77.5451
rradius 131.712
rwrist -16.4739
rhand -28.6852 10.9249
rfingers 7.12502
rthumb -2.04764 -19.0451
lclavicle 2.70347e-014 -2.62396e-014
lhumerus -9.09912 -32.6451 74.0918
lradius 137.375
lwrist -8.4819
lhand -34.6014 0.295206
lfingers 7.12502
lthumb -7.76011 30.1328
rfemur -78.0962 0.387767 1.56045
rtibia 44.2657
rfoot 17.99 -11.1109
rtoes -18.887
lfemur 10.1646 -8.32203 -33.6333
ltibia 26.3336
lfoot -13.9915 10.2673
ltoes 14.0735
242
root 1.242 15.123 3.78569 -17.1057 16.8784 0.676054
lowerback 2.94075 0.436811 -1.36741
upperback 2.09667 0.557464 2.67048
thorax 0.463736 0.252803 3.49865
lowerneck 1.97513 9.13392 23.6853
upperneck 36.729 15.6538 -10.4062
head 15.578 9.3951 -6.25708
rclavicle -5.24792e-014 2.3059e-014
rhumerus -15.57 21.223 -77.4867
rradius 131.665
rwrist -16.4529
rhand -28.5548 11.0314
rfingers 7.12502
rthumb -1.92173 -18.9397
lclavicle -5.24792e-014 2.3059e-014
lhumerus -9.21864 -32.5565 74.152
lradius 137.399
lwrist -8.48998
lhand -34.8251 0.3967
lfingers 7.12502
lthumb -7.97598 30.2262
rfemur -78.4322 -0.364141 3.05687
rtibia 46.0194
rfoot 17.9708 -9.9408
rtoes -18.9233
lfemur 9.57475 -8.31805 -33.6206
ltibia 26.6333
lfoot -14.069 10.3421
ltoes 14.1476
